# xmcd
#
# Track frame offsets:
# 150
# 23196
# 37982
# 52730
# 81498
# 96630
# 112137
# 130189
# 152572
# 166835
# 183239
# 202084
#
# Disc length: 2951 seconds
#
# Revision: 0
# Processed by: cddbd v1.4b42PL1 Copyright (c) Steve Scherf et al.
# Submitted via: Audion 2.5.0 (http://www.panic.com/audion/)
#
DISCID=9d0b850c
DTITLE=2n1 - UnKnown
DYEAR=1900
DGENRE=
TTITLE0=taste that
TTITLE1=2
TTITLE2=3
TTITLE3=4
TTITLE4=5
TTITLE5=6
TTITLE6=7
TTITLE7=8
TTITLE8=in da air
TTITLE9=10
TTITLE10=11
TTITLE11=12
EXTD=
EXTT0=
EXTT1=
EXTT2=
EXTT3=
EXTT4=
EXTT5=
EXTT6=
EXTT7=
EXTT8=
EXTT9=
EXTT10=
EXTT11=
PLAYORDER=
